<?xml version="1.0" encoding="utf-8"?>

<!DOCTYPE svg PUBLIC "-//W3C//DTD SVG 1.1//EN" "http://www.w3.org/Graphics/SVG/1.1/DTD/svg11.dtd">
<!-- Uploaded to: SVG Repo, www.svgrepo.com, Generator: SVG Repo Mixer Tools -->
<svg version="1.1" id="_x32_" xmlns="http://www.w3.org/2000/svg" xmlns:xlink="http://www.w3.org/1999/xlink" 
	 viewBox="0 0 512 512"  xml:space="preserve">
<style type="text/css">
	.st0{fill:#000000;}
</style>
<g>
	<path class="st0" d="M487.492,105.476h-341.04h-2.468h-24.516h-94.96H0v24.508v252.024v24.516h24.508h94.96h24.516h2.468h341.04
		H512v-24.516V129.984v-24.508H487.492z M487.492,382.008h-341.04c0-7.452-6.041-13.476-13.5-13.476
		c-7.436,0-13.484,6.024-13.484,13.476h-94.96V129.984h94.96c0,7.452,6.048,13.484,13.484,13.484c7.459,0,13.5-6.032,13.5-13.484
		h341.04V382.008z"/>
	<path class="st0" d="M132.952,267.717c-7.436,0-13.484,6.033-13.484,13.485c0,7.451,6.048,13.484,13.484,13.484
		c7.459,0,13.5-6.032,13.5-13.484C146.452,273.75,140.411,267.717,132.952,267.717z"/>
	<path class="st0" d="M132.952,166.896c-7.436,0-13.484,6.04-13.484,13.499c0,7.452,6.048,13.484,13.484,13.484
		c7.459,0,13.5-6.032,13.5-13.484C146.452,172.936,140.411,166.896,132.952,166.896z"/>
	<path class="st0" d="M132.952,217.306c-7.436,0-13.484,6.049-13.484,13.484c0,7.46,6.048,13.492,13.484,13.492
		c7.459,0,13.5-6.033,13.5-13.492C146.452,223.355,140.411,217.306,132.952,217.306z"/>
	<path class="st0" d="M132.952,318.121c-7.436,0-13.484,6.032-13.484,13.491c0,7.444,6.048,13.485,13.484,13.485
		c7.459,0,13.5-6.041,13.5-13.485C146.452,324.153,140.411,318.121,132.952,318.121z"/>
	<rect x="250.806" y="180.653" class="st0" width="167.024" height="18.161"/>
	<rect x="250.806" y="246.92" class="st0" width="167.024" height="18.153"/>
	<rect x="332.5" y="313.186" class="st0" width="85.331" height="18.161"/>
</g>
</svg>